<?xml version="1.0" encoding="UTF-8" standalone="no"?>
<svg
   xmlns:dc="http://purl.org/dc/elements/1.1/"
   xmlns:cc="http://creativecommons.org/ns#"
   xmlns:rdf="http://www.w3.org/1999/02/22-rdf-syntax-ns#"
   xmlns:svg="http://www.w3.org/2000/svg"
   xmlns="http://www.w3.org/2000/svg"
   xmlns:sodipodi="http://sodipodi.sourceforge.net/DTD/sodipodi-0.dtd"
   xmlns:inkscape="http://www.inkscape.org/namespaces/inkscape"
   width="370"
   height="370"
   viewBox="0 0 97.895832 97.895832"
   version="1.1"
   id="svg8"
   inkscape:version="1.0.1 (3bc2e813f5, 2020-09-07)"
   sodipodi:docname="logo-retroweb.svg">
  <defs
     id="defs2">
    <inkscape:path-effect
       effect="skeletal"
       id="path-effect917"
       is_visible="true"
       lpeversion="1"
       pattern="M 0,5 C 0,2.24 2.24,0 5,0 7.76,0 10,2.24 10,5 10,7.76 7.76,10 5,10 2.24,10 0,7.76 0,5 Z"
       copytype="single_stretched"
       prop_scale="1"
       scale_y_rel="false"
       spacing="0"
       normal_offset="0"
       tang_offset="0"
       prop_units="false"
       vertical_pattern="false"
       hide_knot="false"
       fuse_tolerance="0" />
    <inkscape:path-effect
       effect="skeletal"
       id="path-effect913"
       is_visible="true"
       lpeversion="1"
       pattern="M 0,5 C 0,2.24 2.24,0 5,0 7.76,0 10,2.24 10,5 10,7.76 7.76,10 5,10 2.24,10 0,7.76 0,5 Z"
       copytype="single_stretched"
       prop_scale="1"
       scale_y_rel="false"
       spacing="0"
       normal_offset="0"
       tang_offset="0"
       prop_units="false"
       vertical_pattern="false"
       hide_knot="false"
       fuse_tolerance="0" />
    <inkscape:path-effect
       effect="skeletal"
       id="path-effect893"
       is_visible="true"
       lpeversion="1"
       pattern="M 0,5 C 0,2.24 2.24,0 5,0 7.76,0 10,2.24 10,5 10,7.76 7.76,10 5,10 2.24,10 0,7.76 0,5 Z"
       copytype="single_stretched"
       prop_scale="1"
       scale_y_rel="false"
       spacing="0"
       normal_offset="0"
       tang_offset="0"
       prop_units="false"
       vertical_pattern="false"
       hide_knot="false"
       fuse_tolerance="0" />
    <inkscape:path-effect
       effect="skeletal"
       id="path-effect889"
       is_visible="true"
       lpeversion="1"
       pattern="M 0,5 C 0,2.24 2.24,0 5,0 7.76,0 10,2.24 10,5 10,7.76 7.76,10 5,10 2.24,10 0,7.76 0,5 Z"
       copytype="single_stretched"
       prop_scale="1"
       scale_y_rel="false"
       spacing="0"
       normal_offset="0"
       tang_offset="0"
       prop_units="false"
       vertical_pattern="false"
       hide_knot="false"
       fuse_tolerance="0" />
    <inkscape:path-effect
       effect="powerstroke"
       id="path-effect885"
       is_visible="true"
       lpeversion="1"
       offset_points="2,0.1322915"
       sort_points="true"
       interpolator_type="CubicBezierJohan"
       interpolator_beta="0.2"
       start_linecap_type="zerowidth"
       linejoin_type="extrp_arc"
       miter_limit="4"
       scale_width="1"
       end_linecap_type="zerowidth" />
  </defs>
  <sodipodi:namedview
     id="base"
     pagecolor="#ffffff"
     bordercolor="#666666"
     borderopacity="1.0"
     inkscape:pageopacity="0.0"
     inkscape:pageshadow="2"
     inkscape:zoom="0.7"
     inkscape:cx="104.37886"
     inkscape:cy="467.6738"
     inkscape:document-units="mm"
     inkscape:current-layer="g1013"
     inkscape:document-rotation="0"
     showgrid="false"
     inkscape:window-width="1920"
     inkscape:window-height="1011"
     inkscape:window-x="1920"
     inkscape:window-y="32"
     inkscape:window-maximized="1"
     units="px" />
  <metadata
     id="metadata5">
    <rdf:RDF>
      <cc:Work
         rdf:about="">
        <dc:format>image/svg+xml</dc:format>
        <dc:type
           rdf:resource="http://purl.org/dc/dcmitype/StillImage" />
        <dc:title />
      </cc:Work>
    </rdf:RDF>
  </metadata>
  <g
     inkscape:label="Layer 1"
     inkscape:groupmode="layer"
     id="layer1">
    <g
       id="g1013"
       transform="translate(-49.921792,-33.977511)">
      <path
         id="path956"
         style="color:#000000;font-style:normal;font-variant:normal;font-weight:normal;font-stretch:normal;font-size:medium;line-height:normal;font-family:sans-serif;font-variant-ligatures:normal;font-variant-position:normal;font-variant-caps:normal;font-variant-numeric:normal;font-variant-alternates:normal;font-variant-east-asian:normal;font-feature-settings:normal;font-variation-settings:normal;text-indent:0;text-align:start;text-decoration:none;text-decoration-line:none;text-decoration-style:solid;text-decoration-color:#000000;letter-spacing:normal;word-spacing:normal;text-transform:none;writing-mode:lr-tb;direction:ltr;text-orientation:mixed;dominant-baseline:auto;baseline-shift:baseline;text-anchor:start;white-space:normal;shape-padding:0;shape-margin:0;inline-size:0;clip-rule:nonzero;display:inline;overflow:visible;visibility:visible;opacity:1;isolation:auto;mix-blend-mode:normal;color-interpolation:sRGB;color-interpolation-filters:linearRGB;solid-color:#000000;solid-opacity:1;vector-effect:none;fill:#0c1826;fill-opacity:1;fill-rule:nonzero;stroke:none;stroke-width:15.1181;stroke-linecap:round;stroke-linejoin:miter;stroke-miterlimit:4;stroke-dasharray:none;stroke-dashoffset:0;stroke-opacity:1;color-rendering:auto;image-rendering:auto;shape-rendering:auto;text-rendering:auto;enable-background:accumulate;stop-color:#000000;stop-opacity:1"
         d="M 24.207031 28.630859 L 24.207031 36.189453 L 24.207031 101.50195 C 28.496421 95.866283 33.672002 90.891561 39.326172 86.519531 L 39.326172 43.748047 L 321.83008 43.748047 L 321.83008 126.4082 C 326.76586 123.13602 331.95452 121.69104 336.94922 121.16797 L 336.94922 28.630859 L 24.207031 28.630859 z M 25.359375 229.03906 C 25.769385 233.43597 27.316679 235.21104 29.511719 237.04492 C 31.685369 238.86095 35.360472 240.2611 39.326172 240.71289 L 39.326172 240.46875 C 33.302212 237.98357 28.668075 233.93008 25.359375 229.03906 z M 336.94922 257.40039 C 332.27794 261.34136 327.24388 265.03099 321.83008 268.32617 L 321.83008 326.25391 L 210.50781 326.25391 L 175.25781 326.25391 L 148.79297 326.25391 L 39.326172 326.25391 L 39.326172 286.26367 C 34.265452 286.09985 29.183121 285.39312 24.207031 284.07617 L 24.207031 341.36914 L 336.94922 341.36914 L 336.94922 257.40039 z "
         transform="matrix(0.26458333,0,0,0.26458333,49.921792,33.977511)" />
      <path
         style="color:#000000;font-style:normal;font-variant:normal;font-weight:normal;font-stretch:normal;font-size:medium;line-height:normal;font-family:sans-serif;font-variant-ligatures:normal;font-variant-position:normal;font-variant-caps:normal;font-variant-numeric:normal;font-variant-alternates:normal;font-variant-east-asian:normal;font-feature-settings:normal;font-variation-settings:normal;text-indent:0;text-align:start;text-decoration:none;text-decoration-line:none;text-decoration-style:solid;text-decoration-color:#000000;letter-spacing:normal;word-spacing:normal;text-transform:none;writing-mode:lr-tb;direction:ltr;text-orientation:mixed;dominant-baseline:auto;baseline-shift:baseline;text-anchor:start;white-space:normal;shape-padding:0;shape-margin:0;inline-size:0;clip-rule:nonzero;display:inline;overflow:visible;visibility:visible;isolation:auto;mix-blend-mode:normal;color-interpolation:sRGB;color-interpolation-filters:linearRGB;solid-color:#000000;solid-opacity:1;vector-effect:none;fill:#0c1826;fill-opacity:1;fill-rule:nonzero;stroke:none;stroke-width:12;stroke-linecap:butt;stroke-linejoin:miter;stroke-miterlimit:4;stroke-dasharray:none;stroke-dashoffset:0;stroke-opacity:1;color-rendering:auto;image-rendering:auto;shape-rendering:auto;text-rendering:auto;enable-background:accumulate;stop-color:#000000"
         d="M 83.316878,55.345459 C 72.609169,55.471136 59.754401,61.333982 59.13489,69.44589 c -0.66081,8.652698 7.156154,8.477518 7.156154,8.477518 4.45694,-0.125773 6.562947,-2.806423 6.551538,-4.19716 -0.0114,-1.39074 -2.810835,-1.774285 -2.375567,-4.945951 0.435272,-3.171667 6.640949,-10.590522 15.852262,-9.935827 6.827528,0.509106 8.763037,4.893403 8.497157,9.000485 -0.222131,3.431294 -4.184229,14.649233 -12.130011,14.975311 1.83723,-4.863883 3.66621,-10.85954 5.441014,-18.267101 1.129474,-4.561443 -3.562067,-5.667242 -5.970696,-1.707906 -2.105941,3.461774 -5.345634,10.540341 -9.031489,17.128669 -3.802583,-0.758449 -6.645515,0.402104 -2.598809,4.410583 -1.732597,2.760597 -3.523697,5.23357 -5.312854,7.039883 -2.8775,3.033657 -6.790994,-2.831426 -1.628323,-4.525307 2.410659,-0.732599 2.901128,-4.65814 -2.031917,-4.753715 -4.933051,-0.09558 -10.627426,3.803263 -10.945585,11.099583 -0.318151,7.296315 5.436491,10.692875 10.848432,10.474815 3.720671,-0.14994 10.297406,0.73692 17.230474,-11.992037 1.029319,2.165146 2.054161,5.757267 3.241145,12.188917 2.370924,11.33578 14.891642,15.4757 20.086625,4.4173 1.49744,-3.33194 -0.0499,-3.73531 -1.84123,-3.09025 -1.791291,0.64507 -2.779229,-0.43394 -3.786328,-2.65306 -1.007102,-2.21911 -5.452859,-10.547542 -9.986989,-15.392346 3.454794,-0.578982 9.907709,-2.34723 14.226007,-7.790222 1.95072,0.838949 1.87868,3.044817 1.30276,4.43022 -0.74785,1.799008 -2.556876,6.563617 -3.12849,11.63805 -0.571616,5.074448 3.84139,7.086348 6.31848,7.329788 2.47708,0.24345 8.71687,0.14419 11.12025,-4.718578 0.45565,2.127178 2.33606,5.445058 7.56026,4.752678 15.02386,-2.26455 22.12794,-19.572776 23.16396,-24.529248 1.036,-4.956473 -2.53557,-6.225817 -6.38979,-6.339665 -0.12045,-0.0035 -0.23684,-0.0047 -0.3483,-0.0026 -3.45537,0.06575 -2.66302,2.780872 -1.81488,3.250965 -1.61129,12.232145 -6.39811,15.952586 -8.75243,15.45487 -3.71105,-1.305242 0.0691,-10.598888 0.40928,-12.922207 0.34019,-2.323317 0.091,-5.039635 -4.87774,-5.669939 -4.96875,-0.630304 -5.48009,2.771926 -4.1491,3.223575 -0.0962,11.448563 -5.84497,15.759409 -8.46099,15.295708 -2.61603,-0.463698 -0.62464,-4.20329 0.98599,-10.619507 1.24691,-4.967335 -4.10936,-7.276441 -9.43302,-7.65483 0.20615,-0.769551 0.37965,-1.577422 0.51418,-2.427242 1.44817,-8.842008 -6.609052,-13.705163 -19.221044,-14.502474 -0.690501,-0.04365 -1.39455,-0.06057 -2.108398,-0.05219 z"
         id="path978" />
      <g
         id="g965"
         style="fill:#0c1826;fill-opacity:1">
        <path
           id="path941"
           style="fill:#0c1826;fill-opacity:1;stroke:none;stroke-width:0.264583px;stroke-linecap:butt;stroke-linejoin:miter;stroke-opacity:1"
           d="M 83.316632,55.345504 C 72.608923,55.471181 59.75416,61.334028 59.13465,69.445936 c -0.66081,8.6527 7.15615,8.477519 7.15615,8.477519 4.456941,-0.125772 6.562945,-2.806422 6.551536,-4.197159 -0.0114,-1.39074 -2.810836,-1.774285 -2.375567,-4.945951 0.435271,-3.171667 6.640952,-10.590525 15.852265,-9.935829 6.827527,0.509108 8.763034,4.893402 8.497154,9.000484 -0.222131,3.431294 -4.184229,14.649233 -12.130008,14.975313 1.837227,-4.863885 3.666207,-10.859542 5.441011,-18.267103 1.129474,-4.561443 -3.562067,-5.66724 -5.970696,-1.707903 -2.105941,3.461773 -5.345632,10.540341 -9.031489,17.128669 -3.802584,-0.758449 -6.645516,0.402103 -2.598809,4.410583 -1.732597,2.760596 -3.523689,5.233567 -5.312847,7.03988 -2.8775,3.033657 -6.791,-2.831425 -1.62833,-4.525306 2.41066,-0.7326 2.901125,-4.658138 -2.03192,-4.753713 -4.93305,-0.09558 -10.62742,3.803263 -10.94558,11.09958 -0.31815,7.29632 5.43649,10.69288 10.84843,10.47482 3.72067,-0.14993 10.297408,0.73692 17.230474,-11.992042 1.029321,2.165147 2.054161,5.757268 3.241145,12.188922 2.370924,11.33578 14.891645,15.47571 20.086631,4.41731 1.49744,-3.33195 -0.0499,-3.73532 -1.84123,-3.09026 -1.791294,0.64507 -2.779232,-0.43395 -3.786334,-2.65307 -1.007102,-2.21911 -5.452859,-10.547537 -9.986989,-15.392341 4.972161,-0.833276 16.160453,-4.121597 18.246433,-17.298167 1.44817,-8.842009 -6.609058,-13.705162 -19.22105,-14.502473 -0.690501,-0.04365 -1.39455,-0.06057 -2.108398,-0.05219 z" />
        <path
           id="path943"
           style="fill:#0c1826;fill-opacity:1;stroke:none;stroke-width:0.285088px;stroke-linecap:butt;stroke-linejoin:miter;stroke-opacity:1"
           d="m 140.22523,71.96876 c -3.45537,0.06575 -2.66317,2.780962 -1.81503,3.251055 -1.6113,12.232145 -6.39794,15.952274 -8.75226,15.454559 -3.71105,-1.305243 0.0687,-10.598505 0.40889,-12.921824 0.3402,-2.323316 0.0913,-5.039972 -4.87749,-5.670275 -4.96875,-0.630303 -5.4804,2.771942 -4.14941,3.223592 -0.0962,11.448562 -5.84454,15.759582 -8.46056,15.295882 -2.61603,-0.463699 -0.625,-4.203567 0.98563,-10.619785 1.61061,-6.416224 -7.79574,-8.399604 -13.918437,-7.512148 -3.902936,0.486872 -4.949112,1.732721 -5.722755,3.224201 -0.77365,1.49148 -1.818579,5.845165 -0.542555,6.066964 1.276027,0.221796 2.044215,-2.382757 4.91778,-2.681646 4.279857,-0.225364 4.377287,2.96009 3.629427,4.7591 -0.74785,1.799008 -2.556762,6.563326 -3.128377,11.637759 -0.571615,5.074446 3.841317,7.086236 6.318407,7.329676 2.47708,0.24345 8.71684,0.14455 11.12022,-4.718214 0.45565,2.127174 2.33617,5.444774 7.56037,4.752394 15.02386,-2.26455 22.12782,-19.572605 23.16384,-24.529078 1.036,-4.956472 -2.53559,-6.225919 -6.38981,-6.339768 -0.12045,-0.0035 -0.23642,-0.0046 -0.34788,-0.0025 z" />
      </g>
    </g>
  </g>
</svg>
